<!DOCTYPE svg PUBLIC "-//W3C//DTD SVG 1.1//EN" "http://www.w3.org/Graphics/SVG/1.1/DTD/svg11.dtd">

<!-- Uploaded to: SVG Repo, www.svgrepo.com, Transformed by: SVG Repo Mixer Tools -->
<svg fill="#000000" width="30px" height="30px" viewBox="-3.2 -3.2 38.40 38.40" version="1.1" xmlns="http://www.w3.org/2000/svg">

<g id="SVGRepo_bgCarrier" stroke-width="0">

<rect x="-3.2" y="-3.2" width="38.40" height="38.40" rx="0" fill="#7ed0ec" strokewidth="0"/>

</g>

<g id="SVGRepo_tracerCarrier" stroke-linecap="round" stroke-linejoin="round"/>

<g id="SVGRepo_iconCarrier"> <title>pen-to-square</title> <path d="M7.744 19.189l-1.656 5.797c-0.019 0.062-0.029 0.133-0.029 0.207 0 0.413 0.335 0.748 0.748 0.748 0.001 0 0.001 0 0.002 0h-0c0.001 0 0.002 0 0.003 0 0.075 0 0.146-0.011 0.214-0.033l-0.005 0.001 5.622-1.656c0.124-0.037 0.23-0.101 0.315-0.186l-0 0 17.569-17.394c0.137-0.135 0.223-0.323 0.223-0.531v-0c0-0 0-0.001 0-0.001 0-0.207-0.084-0.395-0.219-0.531l-4.141-4.142c-0.136-0.136-0.324-0.22-0.531-0.22s-0.395 0.084-0.531 0.22v0l-17.394 17.394c-0.088 0.088-0.153 0.198-0.189 0.321l-0.001 0.005zM25.859 3.061l3.078 3.078-3.078 3.047-3.079-3.047zM21.72 7.2l3.073 3.041-12.756 12.628-4.133 1.217 1.229-4.299zM30 13.25c-0.414 0-0.75 0.336-0.75 0.75v0 15.25h-26.5v-26.5h15.25c0.414 0 0.75-0.336 0.75-0.75s-0.336-0.75-0.75-0.75v0h-16c-0.414 0-0.75 0.336-0.75 0.75v0 28c0 0.414 0.336 0.75 0.75 0.75h28c0.414-0 0.75-0.336 0.75-0.75v0-16c-0-0.414-0.336-0.75-0.75-0.75v0z"/> </g>

</svg>
