<!DOCTYPE svg PUBLIC "-//W3C//DTD SVG 1.1//EN" "http://www.w3.org/Graphics/SVG/1.1/DTD/svg11.dtd">

<!-- Uploaded to: SVG Repo, www.svgrepo.com, Transformed by: SVG Repo Mixer Tools -->
<svg fill="#000000" height="30px" width="30px" version="1.1" id="Layer_1" xmlns="http://www.w3.org/2000/svg" xmlns:xlink="http://www.w3.org/1999/xlink" viewBox="0 0 511.999 511.999" xml:space="preserve">

<g id="SVGRepo_bgCarrier" stroke-width="0"/>

<g id="SVGRepo_tracerCarrier" stroke-linecap="round" stroke-linejoin="round"/>

<g id="SVGRepo_iconCarrier"> <g> <g> <path d="M485.645,265.116c4.28-2.407,8.237-5.416,11.715-8.961c9.694-9.881,14.891-22.822,14.63-36.439 c-0.53-27.665-23.479-50.171-51.156-50.171H340.792l29.534-80.12c4.966-13.471,4.389-28.071-1.626-41.109 s-16.747-22.952-30.218-27.919c-27.81-10.251-58.777,4.033-69.028,31.845l-10.152,27.541 c-19.791,53.689-71.532,89.761-128.752,89.761H10.199v0.003C4.567,169.548,0,174.114,0,179.747v284.491 c0,5.633,4.567,10.199,10.199,10.199h113.198c5.632,0,10.199-4.566,10.199-10.199v-25.395l16.317,13.093 c34.544,27.719,77.96,42.986,122.25,42.986h127.045c23.867,0,43.809-19.087,44.451-42.547c0.242-8.84-2.109-17.319-6.725-24.594 c13.047-0.078,25.774-5.477,34.961-14.841c9.156-9.332,14.063-21.555,13.817-34.418c-0.236-12.321-5.178-23.557-13.078-31.993 c5.375-2.564,10.319-6.058,14.54-10.361c9.48-9.662,14.559-22.315,14.305-35.631C501.212,286.629,495.15,274.052,485.645,265.116z M113.198,454.039H20.398V189.946h92.799V454.039z M369.798,271.88h81.664c16.028,0,29.318,13.031,29.625,29.047 c0.149,7.793-2.86,15.236-8.472,20.955c-5.771,5.883-13.768,9.257-21.94,9.257h-13.273h-60.777 c-5.632,0-10.199,4.566-10.199,10.199c0,5.633,4.567,10.199,10.199,10.199h60.777c15.105,0,27.629,12.281,27.917,27.375 c0.141,7.34-2.696,14.352-7.983,19.743c-5.442,5.546-12.983,8.728-20.687,8.728h-36.74h-35.802 c-5.632,0-10.199,4.566-10.199,10.199c0,5.633,4.567,10.199,10.199,10.199h35.802c6.363,0,12.313,2.512,16.752,7.075 c4.438,4.56,6.783,10.583,6.609,16.959c-0.344,12.521-11.137,22.708-24.061,22.708H272.164 c-39.666,0-78.548-13.671-109.483-38.496l-29.084-23.338V189.917c31.301-0.595,61.353-10.346,87.096-28.292 c26.575-18.528,46.544-44.388,57.749-74.785L288.594,59.3c6.361-17.256,25.577-26.12,42.833-19.76 c8.359,3.081,15.019,9.234,18.751,17.324c3.732,8.09,4.091,17.149,1.009,25.509l-34.594,93.846 c-1.154,3.129-0.704,6.624,1.203,9.36c1.907,2.736,5.032,4.366,8.366,4.366h134.672c16.643,0,30.444,13.531,30.762,30.163 c0.154,8.094-2.969,15.823-8.796,21.763c-5.991,6.107-14.293,9.61-22.776,9.61h-8.563h-81.664 c-5.632,0-10.199,4.566-10.199,10.199C359.598,267.313,364.166,271.88,369.798,271.88z"/> </g> </g> <g> <g> <path d="M337.664,251.481h-3.13c-5.632,0-10.199,4.566-10.199,10.199c0,5.633,4.567,10.199,10.199,10.199h3.13 c5.632,0,10.199-4.566,10.199-10.199C347.863,256.047,343.297,251.481,337.664,251.481z"/> </g> </g> <g> <g> <path d="M75.064,385.761c-15.036,0-27.269,12.233-27.269,27.269c0,15.037,12.233,27.269,27.269,27.269 s27.268-12.233,27.268-27.269S90.1,385.761,75.064,385.761z M75.064,419.901c-3.789,0-6.87-3.082-6.87-6.87s3.081-6.87,6.87-6.87 c3.788,0,6.869,3.081,6.869,6.87S78.852,419.901,75.064,419.901z"/> </g> </g> </g>

</svg>
